<svg version="1" xmlns="http://www.w3.org/2000/svg" width="346.667" height="346.667" viewBox="0 0 260.000000 260.000000"><path d="M0 27.5c0 9.6.2 10.6 1.8 10.3 1.1-.2 1.9-1.5 2.2-3.8.6-4.2 2.3-4.6 12.7-3.2 7.7 1 17.3.5 17.3-.9 0-.5-2.4-.9-5.2-.9-2.9 0-6.1-.7-7-1.4-2.2-1.6-2.3-2.6-.3-2.6.8 0 1.4-.6 1.2-1.3-.1-.8 2.3-1.3 8.8-1.7l9-.5-7.2-.9c-4-.5-7.3-1.2-7.3-1.6 0-.4-2.9-.8-6.5-.9-3.6 0-9.5-.3-13-.6L0 16.9v10.6zM180.8 19.7c1.2.2 3.2.2 4.5 0 1.2-.2.2-.4-2.3-.4s-3.5.2-2.2.4zM190.3 19.7c.9.2 2.3.2 3 0 .6-.3-.1-.5-1.8-.5-1.6 0-2.2.2-1.2.5zM196.5 20c.3.5.8 1 1.1 1 .2 0 .4-.5.4-1 0-.6-.5-1-1.1-1-.5 0-.7.4-.4 1zM203 20c0 .5.9 1 2.1 1 1.1 0 1.7-.5 1.4-1-.3-.6-1.3-1-2.1-1s-1.4.4-1.4 1zM224.5 20c-9.4.6-9.1.6 5.9.8 8.8.1 15.7 0 15.5-.2-1-.8-12.2-1.1-21.4-.6zM46 21.2c0 .4 2.1.8 4.8 1 2.8.2 4.6.7 4.5 1.4-.1.7 1.1 1.7 2.7 2.4 2.6 1.1 4.3 3.2 2.3 2.9-.5-.1-2.5-.1-4.7 0-2.9.1-3.7.5-3.3 1.5.4 1-.2 1.6-1.6 1.9-1.6.3-1.3.5 1 .6 1.7 0 3.4-.5 3.7-1.2.4-.7.8-.8 1.1-.2.5 1 9.8.9 12.5-.2.8-.3 1.8-.6 2.2-.5.4.1.5-.5.2-1.2-.4-1 .3-1.6 1.8-1.8 1.5-.2 2.3-1 2.3-2.3 0-1.1.4-2.3 1-2.7.5-.4.3-.9-.5-1.2-2.4-.8-30-1.2-30-.4zM35 29.9c0 1.1 2.3 1.8 7 2 4.7.2 2.7-1.5-2.7-2.3-2.5-.4-4.3-.2-4.3.3zM144.5 41.1c-1.6.5-3.7.6-4.6.4-1-.3-1.9.1-2.3 1.1-.4.9-1.4 1.4-2.4 1.2-1-.3-2.3.1-3 .9-.7.7-2.6 1.3-4.2 1.3-1.7 0-3 .4-3 1 0 .5-.8 1-1.7 1-1 0-2.7.7-3.7 1.5-1.1.8-2.7 1.5-3.7 1.5-.9 0-2.2.7-2.9 1.5-.7.9-3.2 2-5.6 2.6-2.4.6-4.4 1.6-4.4 2.1s-.4.7-.9.4c-.5-.4-1.1-.1-1.3.4-.2.6-1.2 1.2-2.3 1.4-1.1.1-2.4 1.2-3 2.4-.5 1.2-1.4 2.1-2 1.9-1.2-.4-8.5 6.2-8.5 7.8 0 .6-1.1 2.1-2.4 3.3-1.7 1.4-2.7 3.6-3.2 6.9-.3 2.6-1.1 5.4-1.6 6-.6.7-.7 2.4-.4 3.7.3 1.4.3 2.7-.1 2.9-.5.3-.7 2-.6 3.9.2 4.5.2 4.5 1.2 3 .5-.9.8-.3.9 1.7.2 6.3 5.1 15.5 7.7 14.5 1.1-.5 1.2-1.1.5-2.5-1.6-2.8-1.6-10.5-.1-12.3 1.6-2 4.7-2.1 5.8-.2.5.8 3.4 1.5 7.3 1.9 3.5.3 6.6 1 6.8 1.6.2.5 1.1.7 2 .4 1.2-.5 1.1 0-.7 2.3-1.2 1.6-3.1 3-4.1 3-5.9.4-10.2 4.9-5.6 5.9 9.4 1.9 17.7 2.4 19.4 1.2.6-.5 1.2-1.9 1.2-3.1 0-3.3 2.3-8.8 4.8-12.1 1.3-1.7 3-4.5 3.7-6.3 1.4-3.3 2.9-4 4-2.2.5.8 1.1.8 2 0 .9-.7 1.1-3 .7-8-.4-6-.2-7.1 1.3-7.6 2.3-.9 4.5 2 4.5 5.8s8.4 12.3 13.7 13.7c4.4 1.3 11.3 1.5 11.3.3 0-.8 4.8-3.2 6.6-3.2 1.5 0 2.4 2.3 2.4 5.8 0 3-3.5 11.2-4.7 11.2-.4 0-2.3-.9-4.2-2.1-1.9-1.1-4.6-2-6-1.9-1.4.1-4.3.2-6.3.3-2.1.1-3.8.4-3.8.6 0 .3.8 2.2 1.8 4.3 1.6 3.7 1.9 3.8 5.7 3.3 8.5-1 15.5-2.9 15.5-4.1 0-.7 1.1-2.3 2.4-3.6 1.3-1.3 2.6-3.4 2.9-4.8.3-1.4 1.3-4.9 2.1-7.7.8-2.9 1.6-7.8 1.8-10.9.2-3.1.6-5.8 1.1-6.1.4-.2.5-.9.2-1.4-1.2-1.8-2.3-11.4-1.4-11.9.4-.3.2-1.7-.5-3.1-.7-1.4-1.6-4.2-2-6.2-.4-2-.8-4-.9-4.4-.3-1.2-7.2-7.2-11.8-10.2-3.5-2.4-4.7-2.7-7.2-2-1.6.5-3.5.5-4.1.1-1.6-1-6.7-1.1-10.1-.1zm21.4 10.1l6.6 3.4 1.9 7c2.5 9.4 3.3 16.3 1.5 14.6-.7-.6-2.3-1.2-3.6-1.2-1.7 0-2.2-.5-2-2.1.1-1.3-.6-2.6-1.8-3.3-1.1-.6-2.2-1.4-2.5-1.8-.6-.8-7.5-2.6-13.5-3.7-6.1-1-10.7-4.1-10.2-6.9.5-2.7-.1-2.8-1.9-.5-.7 1-1.4 1.3-1.4.6 0-1.9 5.2-7.5 8.5-8.9 4.4-2.1 10.9-1.1 18.4 2.8zM137 57c0 .5-.4 1-1 1-.5 0-1-.5-1-1 0-.6.5-1 1-1 .6 0 1 .4 1 1zm-6 2.5c0 2.8-1.7 3.4-2.7.9-.3-.9 0-2 .8-2.5 1.9-1.2 1.9-1.2 1.9 1.6zm-4 1.5c0 2.3-1.3 2.6-2.9.6-.9-1.1-.9-1.5.1-1.9 2.3-1 2.8-.7 2.8 1.3zm45.7 17.6c-.7.7-5.7-1.8-5.7-2.8 0-.5 1.4-.1 3.1.7 1.7.9 2.9 1.9 2.6 2.1zm-6.9 4.6c.8.8.8 1.5.1 2.4-.8 1-.3 1.2 2 1.2 4.1-.1 4.7.7 3.1 3.7-2.4 4.5-9.2 1.8-7.4-2.8.3-.9.1-2.5-.6-3.6-.8-1.6-.8-2.1.3-2.1.7 0 1.8.5 2.5 1.2zm-68.4 11c-.9 1.4-2.4-.2-2.4-2.5.1-2.1.1-2.1 1.5-.3.8 1 1.2 2.3.9 2.8zM17 47.9c0 .6.4 1.3 1 1.6.6.3.7-.1.4-.9-.7-1.8-1.4-2.1-1.4-.7zM.8 56.7c.7.3 1.6.2 1.9-.1.4-.3-.2-.6-1.3-.5-1.1 0-1.4.3-.6.6zM57.7 63c-.3.8-1.2 4.1-2 7.2-1.3 4.8-1.3 5.6-.1 5.1 2.1-.8 1.7 1.4-.6 3-1.7 1.2-2.3 3.1-3 9.8-.5 4.6-1.1 9.1-1.3 9.9-1.2 3.7-1.6 8.1-.7 7.5.6-.3 1-1.4 1-2.4s1-2.6 2.1-3.7l2.2-1.9-1.7 3.4c-1.7 3.2-1.7 3.3.3 4.8 1.2.8 2.1 2.1 2.1 2.9 0 1.7-.5 1.7-3.1.4-1.7-.9-1.9-.7-1.9 1.9 0 3.1 1.4 4.1 6 4.1 2.8 0 2.8-.1 2.9-6 0-3.3-.4-5.8-.8-5.6-.9.6-.5-4.5.5-7.6.6-2.1-.6-2.4-2.4-.6-.9.9-1.2.9-1.2 0 0-.6.8-1.5 1.7-2 1.9-1.1 2-3.2 1.1-18.2-.4-5.8-.4-9.2 0-7.5.6 2.5.9 2.7 1.5 1.2 1-2.7.9-7.6-.2-5.8-.7 1.1-.9 1.1-1.4 0-.4-1.1-.6-1.1-1 .1zM55 91.5c-.7.9-1.5 1.3-1.8 1-.3-.2.1-1.1.8-2 .7-.9 1.5-1.3 1.8-1 .3.2-.1 1.1-.8 2zm-1 4.4c0 .6-.4 1.3-1 1.6-.5.3-1-.1-1-.9 0-.9.5-1.6 1-1.6.6 0 1 .4 1 .9zM17.1 63.3c.2.1 1.3.9 2.4 1.7 1.9 1.4 1.9 1.4.6-.3-.7-.9-1.8-1.7-2.4-1.7-.6 0-.8.1-.6.3z"/><path d="M35.8 89.6c.4 17.4.3 19.4-1.2 19.4-.9 0-1.6-.8-1.6-1.9 0-1.1-.5-2.3-1.1-2.7-.9-.5-1-4.4-.6-13.3.6-13.9-.5-13.4-2.5 1.3-1.1 7.7-1.7 9.2-4 10.9-2.2 1.6-3.1 1.8-5.7.9-2.2-.8-3.1-.7-3.5.1-.3.8-1 .5-2.2-.8-1.1-1.4-1.8-1.6-2.1-.8-.3.7-2 1.3-3.9 1.3-2.7 0-3.7-.5-4.6-2.5-.6-1.4-1.5-2.5-2-2.5-.4 0-.8 30.4-.8 67.5V234h3.9c3.9 0 4-.1 3.6-3.3C6.3 221 6.2 213 7.2 213c.7 0 .4-.6-.6-1.3-1.6-1.2-1.6-1.4-.2-2.6.9-.7 2.3-1.1 3.1-.7.9.3 1.5 0 1.5-.9 0-1.8-2.1-2-3.8-.3-.9.9-1.2.6-1.2-1.5 0-2.8 2.8-4.7 7.1-4.7 3.1 0 2.7 11-.7 18.4-1.4 3.2-2.3 6-2 6.4.4.3 2.5-1.3 4.9-3.5 4.1-4 7.6-6.3 9.5-6.3.5 0 2.4 2.7 4.1 6 3 5.6 3.1 6.1 1.6 8.2-.8 1.3-1.8 2.2-2 2-1.3-.6-2.5.1-5.9 3.4-2 1.9-4.1 3.2-4.6 2.9-.6-.4-.8-1-.6-1.4.3-.4-.8-2.1-2.4-3.6-3-2.8-3-2.8-3-.6 0 1.3.8 3.5 1.9 4.9 1 1.5 2.1 4.6 2.4 6.8.7 4 .6 4.1-1.9 4.1-1.4 0-3 .5-3.6 1.1-.7.7-1.9 0-3.7-2-2.5-2.8-2.9-2.9-4.9-1.7-1.9 1.2-2.2 2.3-2.2 7.6v6.3h189v-2.4c0-1.3.7-4 1.5-5.9 1.8-4.5 1.9-5.3.2-3.8-.8.6-1.7.8-2 .4-.4-.3-1.7.3-3 1.5s-3.9 2.4-5.9 2.6c-2.1.3-5 1.1-6.5 1.9-1.5.8-3.7 1.3-4.8 1.1-1.1-.1-2.7.4-3.6 1.2-.9.8-2.5 1.5-3.5 1.5-2.9-.1-4.5 0-10.1.4-3.3.2-5.3 0-5.3-.7 0-.5-.7-.7-1.5-.4-1 .3-1.8-.1-2.3-1.3-.5-1.3-1.2-1.6-2.7-1-1.7.6-1.7.8-.2.8.9.1 1.7.5 1.7 1 0 1.9-2.1 2.2-5 .8-2.1-1.1-3-1.2-3.3-.3-.3.6-.9 0-1.5-1.4s-1.1-1.9-1.1-1.3c-.1 2.2-2.1 1.4-2.1-.8 0-1.1-.5-1.7-1-1.4-.6.3-.7 1.7-.4 3.1.5 1.8.2 2.4-.9 2.4-.9 0-1.8-.4-2.1-.9-.3-.4-1.7-.7-3.2-.5-1.9.2-2.8-.3-3.1-1.7-.4-1.4-.9-1.6-2.3-.9-1 .5-2.8.7-4.1.4-1.3-.2-3.5-.6-4.9-.8-4.4-.7-5.9-1.7-5.3-3.4.3-1.2.2-1.3-.4-.4-.8 1-1.7.9-4.6-.3-2-.8-4.8-1.5-6.2-1.5-1.6 0-2.5-.6-2.5-1.5 0-.8-.5-1.5-1.1-1.5-.6 0-2.4-.9-3.9-2-1.6-1.1-3.2-2-3.7-1.9-1.8.3-3.3-.2-3.3-1 0-.5-1.5-2.5-3.2-4.4-7.4-7.9-11.4-14.6-13.9-23.5-.7-2.3-1.6-4.2-2-4.2-.4 0-.5-1.6-.2-3.7.4-2.1.2-3.4-.3-3-.6.3-.8-2.5-.6-6.9.3-5.3.1-7.4-.8-7.4-.7 0-1-.6-.7-1.4.3-.8.2-1.6-.2-1.8-.4-.2-.2-3.3.4-7.1.6-3.7.8-6.7.4-6.7-1.6 0-4.1 12.9-4 20.5.2 7.7 0 8.2-2.8 10.9-1.7 1.6-3.3 4.3-3.7 5.9l-.6 3.1-2-2.7c-2.3-3.2-3.4-3.4-4.3-.7-.7 2.4-2.1 2.5-4.1.6-2.1-2.1-1.7-2.9 1.1-2.2 2.1.5 2.5.2 3.1-2.9.4-2.5 0-5.2-1.4-9.1l-2.1-5.4 3.5-11.3c2-6.1 4-12.3 4.6-13.7.6-1.4 1-3.3.9-4.3-.1-.9.4-1.7 1.1-1.7 1 0 1-.2-.1-.9-.8-.5-1.7-3.1-2.1-5.7-.8-5.2-.5-6.7 1-4.4.8 1.2 1 1.2 1-.3 0-1.1-.8-2.1-1.9-2.4-1.8-.4-4.1-4.1-4.1-6.5 0-.5.6-.8 1.4-.5.9.4 1.6-.3 2-1.6.9-3.4.7-21.1-.4-33.2-.9-10-3.8-30.6-4.3-31.2-.2-.1-.1 8.6.1 19.3zM18 121.2c0 1.3-2.3.5-2.8-1-.2-.7.2-1 1.2-.6.9.3 1.6 1.1 1.6 1.6zm16.1 8.2c2.4 2.6.1 4.6-3 2.7-1.1-.7-1.1-1.4 0-4.7 1.2-3.3 1.4-3.5 1.7-1.3.2 1.3.8 2.8 1.3 3.3zm-12.4-3.1c.3.3-.2 1.3-1.1 2.2-.9.9-1.6 2-1.6 2.5 0 1.5-2.9 1.9-5.9.7-3.4-1.3-3.6-1.8-2-4.9.9-1.7 1.8-2 5.5-1.5 2.5.2 4.8.7 5.1 1zM50 209c0 4.3-.2 4.8-2 4.3-1.3-.3-2 0-2 .8 0 2-2-1.1-2-3.1 0-2.3 3.9-8.2 5-7.5.6.3 1 2.8 1 5.5zm-30.4.6c-1 1.4-2 2.3-2.3 2-.3-.3.2-1.7 1.1-3.2 1-1.4 2-2.3 2.3-2 .3.3-.2 1.7-1.1 3.2zm5.4 27.9c0 .8-.4 1.5-.8 1.5-.5 0-.9-.7-.9-1.5s.4-1.5.9-1.5c.4 0 .8.7.8 1.5zm2.5 4.6c1.1 1.7-.1 2.1-1.5.4-.8-.9-.8-1.5-.2-1.5.6 0 1.4.5 1.7 1.1zM3 250c0 .5-.5 1-1.1 1-.5 0-.7-.5-.4-1 .3-.6.8-1 1.1-1 .2 0 .4.4.4 1zm28.2 5.2c-.7.7-1.2.8-1.2.2 0-1.4 1.2-2.6 1.9-1.9.2.3-.1 1.1-.7 1.7zM197.1 105.6c0 1.1.3 1.4.6.6.3-.7.2-1.6-.1-1.9-.3-.4-.6.2-.5 1.3zM133.5 117c-1.6.4-4.6 1.1-6.6 1.4-2.3.4-3.9 1.3-4.2 2.4-.2.9-.8 2.6-1.2 3.7-.7 1.6-.6 1.8.6.7 2.2-2 4.6-1.5 4.5 1-.1 2.4-.1 2.4 7.4 1.8 8.3-.7 11.6-4.2 9.1-9.6-1.1-2.6-3.8-3-9.6-1.4zM175.4 122.7c-.4 1.3-1.4 2.3-2.5 2.3-1 0-2.3.8-2.8 1.7-.9 1.6-1 1.5-1.1-.6 0-2.1-.3-2.3-3-1.8-1.7.4-3 .2-3-.3 0-.6-.9-.5-2 .2s-2 2-1.9 2.8c0 1 .2 1.1.6.2 1-2.4 2.2-.1 1.3 2.4-1.3 3.3-1.3 3.4.5 3.4.8 0 1.5.6 1.5 1.4 0 .8.5 1.8 1.2 2.2.7.5.8.3.3-.6-.5-.9-.2-1 1.4-.5 1.8.5 2.1.2 2.1-2 0-1.5.4-2.4 1-2 .6.3 1-.2 1-1.2 0-1.5.2-1.5 2.2.4l2.2 2.2-2.9 2.6c-2.9 2.4-2.9 2.5-.6 2 1.4-.2 3.1.1 3.8.7 1 .8 1.7.8 2.5 0 .9-.9.8-1.2-.4-1.2-2.1 0-2.8-1.2-2.2-3.6.9-3.3 4.7-2.8 6.9.9 1.8 2.8 2 3 2.3 1.1.2-1.6.8-2 2.8-1.6 1.9.3 2.3.1 1.8-1.2-.7-1.9 1.6-2.2 3.4-.4.9.9 1.7.9 3.4 0 1.3-.6 3.6-1.3 5.2-1.4 2.3-.2 3-.8 3.1-2.8.3-3.2-1.4-5.7-2.7-3.8-.6.9-1 1-1.5.2-1.2-1.7-8.9-1-8.5.7.2.8.8 1.7 1.3 2 .6.3.3 1.1-.5 1.9-1.3 1-1.7.9-2.2-.4-.4-1-1.3-1.5-2-1.2-1.8.7-1.8-1-.1-2.1 2.3-1.4 2.7-3.9.6-3.9-1.1 0-1.9.6-1.9 1.3 0 2.1-1.9 2.5-3.6.8-.9-.9-2.4-1.3-3.2-1-.8.3-1.9 0-2.4-.7-.6-1-1-.7-1.4.9zm25.6 4.2c0 .5-.7 1.1-1.5 1.5-.9.3-1.5 0-1.5-.9 0-.8.7-1.5 1.5-1.5s1.5.4 1.5.9zm-35.4 4.1c.1 3.2-1.3 4.1-2.2 1.5-.4-.8-.1-2.2.6-3 1.6-1.9 1.5-2 1.6 1.5z"/><path d="M79.4 124.2c-.3 1-1.2 1.8-2 1.8s-1.4.5-1.4 1.2c0 .9-.3.9-1.2 0-1.8-1.8-2.7-1.5-2.1.7.3 1.1 0 2.8-.6 3.8-1 1.7-1 1.7-1.1-.3 0-2.6-3.1-5.6-3.7-3.7-.4 1-.9 1-2.4 0-1.6-1-2.1-.9-3 .3-.8 1.3-1.3 1.1-3.1-1-1.4-1.6-1.9-1.9-1.5-.8.4 1.2.1 1.8-.8 1.8-.8 0-1.5-.6-1.5-1.3 0-.6-.5-.4-1.1.6-.6.9-1.5 1.4-2.1 1.1-.7-.4-.8-.2-.4.4.4.7 1.3 1.2 2.1 1.2.7 0 3.7 1.6 6.6 3.5 3 1.9 6 3.5 6.9 3.5.8 0 4.9 1.1 9 2.4 7.3 2.3 7.5 2.4 8.1 6 .5 3.4 1.9 6.2 1.9 3.9 0-.5.7-1 1.5-1s1.5.6 1.5 1.4c0 .7-.7 1.3-1.5 1.3-1.6 0-2 1.6-.6 2.4 1.2.8.1 4.9-1.6 5.9-.7.4-1.3 1.3-1.3 1.9 0 .7.5.6 1.5-.2.8-.7 1.5-.9 1.6-.4 0 .5.5-.2 1.1-1.6.6-1.4 1.1-2.8 1-3.2-.2-1 2.8-3.2 3.4-2.5.8.7.1 2.3-2.3 5.7-1 1.3-1.2 2.1-.5 1.6.8-.5 1.5.1 2.1 1.6.7 1.5 1 1.8 1 .7.1-1.8 2.7-3.3 4.2-2.3.5.3.7 1 .4 1.5-.3.5.1.6 1 .3 1.1-.5 1.4-.2.9 1-.8 2.1-3.4 2.1-3.4-.1 0-1.1-.3-1.4-1-.7-1.1 1.1-.1 5.6 1.1 4.8.5-.3.9.1.9.9s-.7 1.7-1.5 2.1c-.9.3-1.5 1.8-1.5 3.5 0 2.3-.4 2.9-1.5 2.5-1.1-.5-1.5.1-1.5 1.9 0 1.4.7 2.8 1.6 3.1 2.3.9 2.7.8 2-.9-.3-.8-.1-1.5.4-1.5.6 0 1-.8 1-1.8 0-1.2 1-.7 3.5 2.1 3.6 4 4.1 4.7 2.7 4.7-.5 0-1.5-1.1-2.2-2.5-1.6-3-3-3.2-3-.5 0 1.1-.7 2-1.5 2s-1.5.4-1.5 1c0 .5.3 1 .8 1 .4 0 .8 1.1.8 2.5.2 1.9-.1 2.3-1 1.6-2.4-2-3.7.9-2.7 5.8.1.2 1-.6 2.1-1.9 1.9-2.2 2-2.3 2-.2 0 2.9 1.1 5.3 2 4.7.5-.3 1.1-.1 1.5.5.9 1.5 2.5 1.2 2.5-.5 0-.8-.3-1.4-.7-1.4-3.3.5-4.3-.3-4.3-3.6 0-1.9.5-3.5 1.1-3.5.6 0 .8.8.5 1.7-.4 1.4 0 1.8 2.1 2 1.4 0 3 .8 3.5 1.7 1.2 2.1 2.6 2 2.4-.2 0-1 .5-1.6 1.4-1.3 1.3.3 4 .8 6.3 1 .4.1.6 1.1.4 2.3-.2 1.3-.2 1.7 0 1 .3-.6.9-1.2 1.4-1.2 1.5 0 .6 5.5-.8 5.6-.7.1-1.7.2-2.3.3-.5 0-1 .6-1 1.2 0 .5.5.7 1 .4.5-.3 1 .1 1 .9 0 .9.8 1.6 1.8 1.6 1.4 0 1.5-.2.2-1-1.2-.8-1.2-1 .3-1.6.9-.3 1.7-1.1 1.7-1.8 0-.6.9-1.7 2.1-2.4 1.6-1 1.9-2 1.5-3.8-.7-2.7 1.6-6 3.4-4.9.5.3 1-.3 1-1.5 0-3.2 3.3-2.1 4.5 1.5.6 1.6 1.7 3 2.5 3s1.8.4 2.1.8c.3.5.9-.9 1.2-2.9.4-2.1.2-4.3-.3-4.8-.7-.7-1-.5-1.1.4-.1.8-.4.4-.8-1s-1.3-2.4-2-2.2c-.7.1-1.1-.3-.9-1 .8-2.3 2.4-1.8 4.1 1.2 1.9 3.2 4.1 4.2 3 1.3-.4-1.1-.3-1.4.6-.9.6.4.9 1.6.6 2.6-.7 2.3 3.3 4 4.5 1.9.6-.9 1.2-.2 1.8 2.2.7 2.4 1 2.8 1.1 1.2.1-1.2.5-2.4 1-2.8.6-.3.8-1.9.6-3.6-.3-2.5-.1-2.8 1.1-1.8 1.2.9 1.4.6 1.4-2 0-2.4-.5-3.2-2.4-3.7-1.7-.4-2.7-1.5-3.1-3.6-.4-1.6-.4-3.2-.1-3.5.3-.4.6-.1.6.6s.4 1 .9.7c1.2-.8.1-5.6-1.3-5.3-.6.1-1.4 1.8-1.7 3.7-.6 3.1-.7 3.2-1.4 1.3-.4-1.3-1.3-1.9-2.1-1.6-.8.3-1.6-.5-2-2.3-.7-2.5-.8-2.6-1.5-.9-.7 1.7-.8 1.8-.8.2-.1-1.1-.9-1.7-2.3-1.7-1.7 0-1.9-.3-1-1.2.8-.8 1.5-.8 2.8.3 1.4 1.2 1.6 1.1 1.2-.6-.2-1.1-1.1-1.9-2.1-1.9-.9.1-1.7-.2-1.7-.7 0-.5.4-.9 1-.9.5 0 1.2-1.1 1.6-2.5.6-2.5 2.3-3.2 3.8-1.8.4.5 1.2.8 1.6.8.5 0 1.6.9 2.4 2 1.5 2 1.5 2 .9-.3-.4-1.6-.1-2.2 1.1-2.2 1.6 0 2 1.1 1.7 3.8-.2 1.4 2.6 4.1 4.3 4.2.4 0 .6-.7.2-1.5-.3-.8-.1-1.5.4-1.5s1.1.8 1.3 1.7c.3 1 .4.6.3-.9-.2-2.7-1.6-5.2-1.6-2.9 0 .9-.5.9-2 .1-1.2-.6-2-2.1-2-3.5 0-2.2.3-2.4 3.3-1.8 1.7.3 3.4.6 3.7.5 2.3 0 3-.4 3-1.7 0-.8.4-1.5 1-1.5.5 0 .7.7.4 1.5-.4.8-.1 1.5.5 1.5s1.1-.7 1.1-1.5c0-1.8.5-1.8 3-.5 2.8 1.5 7 .3 6.3-1.8-.6-1.5-.4-1.5 1.4 0 2.4 2.2 4.3 2.3 4.3.4 0-.8.6-1.7 1.3-1.9.9-.4.8-.8-.3-1.6-1.3-.9-1.3-1.1.1-1.1 1.1 0 1.8-1.1 2.1-3 .3-1.6.2-2.8 0-2.5-.3.3-1 0-1.7-.5-.8-.7-1.5-.2-2.4 1.6-1.2 2.7-3.7 2.8-3.5 0 .1-.9-.2-1.6-.7-1.6-.5 0-.9.7-.9 1.7 0 .9-.3 1.4-.6 1.1-.3-.4-1.7 0-3.2.8-2.5 1.3-2.8 1.2-3.6-.6-.5-1.1-2-2.3-3.3-2.6-2.3-.6-3-2.4-1.5-3.8.4-.4.7-1.9.7-3.2.1-2.2-.3-2.4-2.3-1.9-1.3.3-2.2.2-1.9-.2.2-.4-.7-1.9-2.1-3.3-2.4-2.5-2.4-2.5-1.9-.3.3 1.3.1 2.5-.4 2.8-.4.3-1.1-.6-1.5-2-.3-1.4-1-2.5-1.5-2.5-.6 0-.5.8.1 1.9.5 1.1.7 2.7.3 3.7-.5 1.4-.3 1.6 1.3 1 1.4-.5 1.6-.4.7.5-1.6 1.6-3.3.2-3.3-2.7 0-1.3-.5-2.4-1.1-2.4-.6 0-.9.6-.6 1.4.9 2.2-.4 2.7-2.9 1.2-2.5-1.7-3.4-1.2-3.4 1.8-.1 2-.1 2-1.4.3-1.4-1.8-1.4-1.8-1.9 0-.3 1.5-.6 1.4-1.5-.7-.8-1.8-1.1-2-1.1-.8-.1 1.1-.9 1.8-2.1 1.8-1.4 0-2-.6-1.8-1.6.2-1-.3-1.9-.9-2.1-.7-.3-1.3.2-1.3 1.1 0 2.6-1.8 1.8-3.5-1.4-1.3-2.5-2-2.9-4.2-2.5-1.6.2-3-.1-3.7-1-1.7-2.4-5.6-2.7-5.6-.5 0 1-.7 2.1-1.6 2.4-2.3.9-2.4.8-2.4-1.2 0-2.3-3-2.5-4.8-.3-1 1.2-1.5 1.3-1.8.3-.3-.6-1-.9-1.6-.6-.5.3-1.5-.1-2.1-.9-1.1-1.3-5.3-2.4-11.9-3.1-2-.1-3 .3-3.4 1.6zm40.1 5.7c.7 1.2-1.2 2.4-2.5 1.6-1.1-.7-.4-2.5 1-2.5.5 0 1.1.4 1.5.9zM113 134c0 .5-.4 1-1 1-.5 0-1-.5-1-1 0-.6.5-1 1-1 .6 0 1 .4 1 1zm41 2c0 .5-.2 1-.4 1-.3 0-.8-.5-1.1-1-.3-.6-.1-1 .4-1 .6 0 1.1.4 1.1 1zm-15.9 2.3c-1.3 1.3-2.6.3-1.6-1.2.3-.6 1.1-.8 1.7-.5.6.4.6 1-.1 1.7zm15 2.7c.4 0 1-.6 1.3-1.3.3-.6.3.3 0 2-.4 2.6-.3 3.2.9 2.7.8-.3 1.8-.1 2.2.5.4.7-.4 1.1-1.9 1.1-1.8 0-3-.9-4.1-3-.9-1.7-2-3-2.5-3-.6 0-1-.7-1-1.5 0-1.3.4-1.2 2.2.5 1.2 1.1 2.5 2 2.9 2zm-35.7-1.5c.3.8.1 1.5-.4 1.5-.6 0-1-.7-1-1.5s.2-1.5.4-1.5.6.7 1 1.5zm-16.5.9c1 1.2.8 1.3-.8.9-1.2-.3-2.1-.9-2.1-1.4 0-1.4 1.6-1.1 2.9.5zm43.1-.4c0 .5-.4 1-1 1-.5 0-1-.5-1-1 0-.6.5-1 1-1 .6 0 1 .4 1 1zm5.5 2.6c.9.9 1.3 1.9 1 2.2-.8.8-5.5-2-4.9-3 .8-1.2 2.1-1 3.9.8zM130 160c0-1.3.1-1.3 1 0 1.3 2 1.3 3.3 0 2.5-.5-.3-1 .1-1 .9 0 .9-.4 1.6-1 1.6-.5 0-1-.6-1-1.4 0-.7-.7-1.9-1.5-2.6-1.2-1-1.3-1.5-.4-2.1.8-.4 1.8-.1 2.6.9 1 1.4 1.2 1.4 1.3.2zm-7 5c0 .5-.5 1-1.1 1-.5 0-.7-.5-.4-1 .3-.6.8-1 1.1-1 .2 0 .4.4.4 1zm2.7 4.2c-.3.8-.6.5-.6-.6-.1-1.1.2-1.7.5-1.3.3.3.4 1.2.1 1.9zm-25.7 2.3c0 .8-.4 1.5-1 1.5-.5 0-1-.7-1-1.5s.5-1.5 1-1.5c.6 0 1 .7 1 1.5zm32.4.1c.5 1.2.2 1.5-1 1-.8-.3-1.8-.6-2-.6-.3 0-.2-.5.1-1 .9-1.5 2.2-1.2 2.9.6zm6.4 4.9c1.7 3.7 1.5 4.5-1.3 4.5-2.1 0-2.5-.5-2.5-2.8 0-4.8 2-5.6 3.8-1.7zm-25.1-.9c-.3.3-1.2.4-1.9.1-.8-.3-.5-.6.6-.6 1.1-.1 1.7.2 1.3.5zm-4.8 5.1c.1.7-.9 1.3-2.1 1.3-1.9 0-2-.2-.8-1 1.3-.9 1.3-1.1 0-2-1.3-.9-1.3-1.1 0-2 1.5-.9 2.8.7 2.9 3.7zm20.5-.4c-.5 1.4-4.4 1.8-4.4.5 0-.4.7-.8 1.5-.8s1.5-.5 1.5-1.1c0-.5.4-.8 1-.4.5.3.7 1.1.4 1.8zm16.9 3.5c-.7 2.8-4.3 2.5-4.3-.3 0-1.2.5-2.6 1.1-3.2 1.7-1.7 3.9.9 3.2 3.5zm-23.5-.7c-.2.6-.8 1-1.3 1s-1.1-.4-1.3-1c-.2-.6.4-1.1 1.3-1.1s1.5.5 1.3 1.1zm-9.8 2.6c0 1.4-.6 2.3-1.5 2.3s-1.5-.9-1.5-2.3.6-2.4 1.5-2.4 1.5 1 1.5 2.4zm12.7-.2c-.4.8-1.1 1.5-1.7 1.5-.7 0-.7-.6 0-2.1 1.3-2.3 2.6-1.9 1.7.6zm-21.7 2.3c0 2.3-.7 2.3-3.7-.1-1.7-1.3-.7-2.6 1.7-2.4 1.4.1 2 .9 2 2.5zm15.1.4c0 1.3.2 3.1.4 4.1.2.9-.1 1.5-.6 1.1-.5-.3-.7-1-.4-1.5.4-.5.1-.9-.4-.9-.6 0-1.2 1-1.2 2.2-.1 1.3-.5.5-.9-1.7-.9-4.4-.6-5.5 1.6-5.5.8 0 1.4 1 1.5 2.2zm2.6 0c-.3.8-.6.5-.6-.6-.1-1.1.2-1.7.5-1.3.3.3.4 1.2.1 1.9zm-12.7 1.2c0 .3-.4.8-1 1.1-.5.3-1 .1-1-.4 0-.6.5-1.1 1-1.1.6 0 1 .2 1 .4zM204.5 124c.3.5.8 1 1.1 1 .2 0 .4-.5.4-1 0-.6-.5-1-1.1-1-.5 0-.7.4-.4 1zM177.5 134c.3.5.8 1 1.1 1 .2 0 .4-.5.4-1 0-.6-.5-1-1.1-1-.5 0-.7.4-.4 1z"/><path d="M53.6 141.2c-2.4 5.6-5.6 16.1-5.1 16.6 2 2 5-4.3 4.6-9.5-.2-1.7.2-2.1 1.3-1.7.9.3 1.6.1 1.6-.5s-.6-1.1-1.2-1.1c-.8-.1-.7-.5.4-1.3 1.4-1.1 2.1-6.7.8-6.7-.3 0-1.4 1.9-2.4 4.2zM251.5 141.1c-1.1 1.4-3.2 3.3-4.7 4.3s-2.6 2.1-2.4 2.5c.2.3 0 1.5-.5 2.6-.8 1.6-.9 1.5-.6-1 .3-3.7-2.3-6.7-4.7-5.3-1.1.6-2.8.6-4.8-.1-3.5-1.3-4.6-.8-5.9 2.6-.5 1.3-1.3 2.1-1.9 1.8-.6-.4-1 .7-1 2.6 0 3.1-.1 3.1-1.9 1.5-1-1-2.1-1.4-2.4-.9-1.6 2.6-4.8 18.1-4.2 20.8.3 1.6.8 5.5 1.1 8.5.2 3 1 6.5 1.6 7.8.7 1.4.8 2.6.2 3.2-.5.5-.7 5.2-.4 10.7.5 8.9.4 10-1.4 11.4-1.3 1.1-1.7 2.3-1.2 3.5.5 1.3 0 2.3-1.5 3.5-1.7 1.2-1.9 2-1.2 3.5 1.3 2.4.6 4.5-1.3 3.7-.8-.3-1.4.1-1.4.8 0 .8-1.1 2.4-2.4 3.7l-2.4 2.2 3.9 8c2.1 4.3 3.9 8.3 3.9 8.7 0 .5-1.2 1.4-2.7 2.1-1.6.7-4.1 2.4-5.8 3.7l-3 2.5 28.8-.1H260v-6c0-3.3-.4-5.9-1-5.9-.5 0-.9-.4-.7-.8.1-.5-1.8-2.9-4.2-5.3-2.5-2.4-4.1-3.9-3.8-3.2.4.6.2 1.5-.4 1.9-.8.4-.9.3-.5-.4s.2-1.2-.4-1.2c-.6 0-.8-.5-.5-1 .3-.6.2-1-.3-1s-2.1-1.2-3.6-2.6c-1.4-1.5-2.6-2.2-2.6-1.5 0 .6-.5 1.1-1.2 1.1-.6 0-.9-.3-.5-.6.5-.6-6.8-8.4-7.9-8.4-.4 0-.2.6.3 1.2.5.7 1.5 3.3 2.2 5.7 1 3.4 1 4.6 0 5.5-.9.8-1 .7-.5-.8.5-1.4.2-1.7-.9-1.2-.8.3-1.5.1-1.5-.5s-.7-.8-1.6-.5c-2.1.8-4-.4-2.3-1.4.9-.6.6-1.6-1.4-4-1.5-1.7-2.7-3.5-2.7-4s-.5-2.1-1.1-3.7c-1.4-3.3-1.9-15.3-.7-15.3.4 0 .8.8.8 1.7.1 1.7.2 1.6 1.5-.1 1.3-1.8 1.4-1.6 1.1 1.5-.2 1.9-.7 4.7-1.1 6.2-.4 1.5-.3 2.6.1 2.5.5-.2 1.9.7 3.2 2 3.8 3.8 4.9 2.9 4.1-3.1-.7-5.6-.5-6.7 1.5-6.7 1.5 0 3.6 6.4 3.6 11.2 0 3.6 2.4 6.8 5.1 6.8.8 0 2 1.3 2.6 3 1.9 5.1 3.7 3.7 3-2.4-.6-5.8.2-7 4.2-5.9 1.9.5 2.1 1.1 1.8 9l-.2 8.5 3.3 2.5 3.2 2.6v-96l-2.5-2.3c-1.4-1.3-2.9-3.7-3.3-5.4l-.8-2.9-1.9 2.4zm-19.5 8.4c0 .8-.2 1.5-.4 1.5s-.6-.7-1-1.5c-.3-.8-.1-1.5.4-1.5.6 0 1 .7 1 1.5zm-2.9 5.6c-2.2 2.4-2.8 1.1-1-2.3.7-1.4 1.4-1.7 2.1-1 .7.7.4 1.8-1.1 3.3zm15.6 4.6c-.3 1-.5.2-.5-1.7s.2-2.7.5-1.8c.2 1 .2 2.6 0 3.5zm-11.3 0c.8 5.4.7 9.5-.3 8.9-.4-.3-.8-2.4-.8-4.7 0-2.3-.6-4.5-1.3-4.9-.7-.4-.9-1.3-.6-1.9 1.3-2 2.3-1.1 3 2.6zm12.3 7.5c-.3.8-.6.5-.6-.6-.1-1.1.2-1.7.5-1.3.3.3.4 1.2.1 1.9zm-8 18c-.3.8-.6.5-.6-.6-.1-1.1.2-1.7.5-1.3.3.3.4 1.2.1 1.9zM222 195.5c0 .8-.4 1.5-1 1.5-.5 0-1-.7-1-1.5s.5-1.5 1-1.5c.6 0 1 .7 1 1.5zm3 1.5c0 .5-.4 1-1 1-.5 0-1-.5-1-1 0-.6.5-1 1-1 .6 0 1 .4 1 1zm26 21.6c0 1.6-1.6 1.9-2.5.4-.8-1.3.4-3.2 1.6-2.5.5.4.9 1.3.9 2.1zm-4.5 39.4c.3.5.1 1-.4 1-.6 0-1.1-.5-1.1-1 0-.6.2-1 .4-1 .3 0 .8.4 1.1 1zM82.7 150.7c-.4.3-.7 1.1-.7 1.7 0 .6.5.5 1.2-.2.6-.6.9-1.4.7-1.7-.3-.3-.9-.2-1.2.2zM209 153.7c0 1.7.7 3.6 1.5 4.3 1.3 1.1 1.4.8.9-2.1-.9-4.7-2.4-6-2.4-2.2zM170.5 156c.3.5.8 1 1.1 1 .2 0 .4-.5.4-1 0-.6-.5-1-1.1-1-.5 0-.7.4-.4 1zM162 158c0 1.9.3 2.1 1.2 1.2.9-.9.9-1.5 0-2.4-.9-.9-1.2-.7-1.2 1.2zM137.5 160c.3.5.8 1 1.1 1 .2 0 .4-.5.4-1 0-.6-.5-1-1.1-1-.5 0-.7.4-.4 1zM138.5 164c-.8 1.3 2 2.4 4.2 1.6 1.5-.6 1.5-.8.3-1.6-2-1.3-3.7-1.2-4.5 0zM165.2 164.7c.5 2.5 2.8 2.8 2.8.4 0-1.2-.6-2.1-1.6-2.1-.9 0-1.4.7-1.2 1.7zM212 165.3c0 1.4.5 2.9 1 3.2.7.4.8-.3.4-2.2-.9-3.8-1.4-4.2-1.4-1zM81.3 165.5c-.8 2.2.6 3.3 1.7 1.5 1.3-2 1.2-3 0-3-.6 0-1.3.7-1.7 1.5zM87 165.6c0 1 2.8 3.3 3.3 2.7.3-.3 0-1.2-.8-1.9-1.4-1.5-2.5-1.8-2.5-.8zM79.1 171.6c0 1.1.3 1.4.6.6.3-.7.2-1.6-.1-1.9-.3-.4-.6.2-.5 1.3zM149 171.6c0 1.5 2.3 4.4 3.4 4.4 1.3 0 .5-2.1-1.4-4-1.6-1.6-2-1.7-2-.4zM89 172.5c.7.9 1.5 1.3 1.7 1.1.7-.7-.7-2.6-1.9-2.6-.6 0-.6.6.2 1.5zM153.3 172.4c.4 1 .7 2.2.7 2.7s.5.9 1.1.9c1.5 0 .7-4.3-1-4.8-1-.3-1.2 0-.8 1.2zM82 176c0 .5.5 1 1 1 .6 0 1-.5 1-1 0-.6-.4-1-1-1-.5 0-1 .4-1 1zM147.5 176c.3.5.8 1 1.1 1 .2 0 .4-.5.4-1 0-.6-.5-1-1.1-1-.5 0-.7.4-.4 1zM156.4 177.8c-.6.4-.9 1.4-.5 2.2.7 1.8 4.1 2.6 4.1 1 0-.6-.4-.8-1-.5-.5.3-1 .1-1-.4 0-.6.5-1.1 1-1.1.6 0 1-.5 1-1 0-1.2-2-1.3-3.6-.2zM80.3 183.5c0 .7.6 1.1 1.4.8.7-.3 1.3-.6 1.3-.8 0-.2-.6-.5-1.3-.8-.8-.3-1.4.1-1.4.8zM87 184.6c0 .8.7 1.4 1.5 1.4s1.5-.5 1.5-1.1c0-.5.5-.7 1-.4.6.3 1 .2 1-.3s-1.1-1-2.5-1c-1.5 0-2.5.6-2.5 1.4zM155 185c0 .5.5 1 1 1 .6 0 1-.5 1-1 0-.6-.4-1-1-1-.5 0-1 .4-1 1zM151.5 187c.4.6 1.1.8 1.6.5 1.4-.9 1.1-1.5-.7-1.5-.8 0-1.2.5-.9 1zM128.1 191.2c0 .9-.4 2.3-.7 3.2-.4 1.1-.1 1.6 1 1.6.9 0 2.5 2 3.8 4.7 1.2 2.5 2.4 4 2.6 3.3.3-.8 1-.2 1.8 1.6 1.2 2.5 1.3 2.6.8.4-.3-1.4-1.5-3.3-2.6-4.3-1.1-.9-1.8-2.5-1.6-3.5.5-2-1.7-4.6-3.1-3.7-.6.3-1.2-.7-1.4-2.2-.2-1.6-.5-2-.6-1.1zM149 193.4c0 .8.7 1.6 1.5 2 1.3.4 1.4.2.5-1.4-1.3-2.3-2-2.6-2-.6zM139.8 194.2c-.6 1.6 1.4 6.8 2.5 6.8.5 0 .7-1 .3-2.3-.3-1.2-.6-3-.6-4 0-1.9-1.6-2.3-2.2-.5zM84.2 196c0 1.4.2 1.9.5 1.2.2-.6.2-1.8 0-2.5-.3-.6-.5-.1-.5 1.3zM124 195c0 .5.5 1 1 1 .6 0 1-.5 1-1 0-.6-.4-1-1-1-.5 0-1 .4-1 1zM166.7 195.3c-.4 1 .3 1.4 2.5 1.5 1.8 0 2.8-.4 2.5-1.1-.5-1.7-4.4-2-5-.4zM89.1 197.7c.1 1.8.3 2.2.6 1 .4-1.4.8-1.6 1.9-.6 1.1.9 1.4.8 1.4-.4 0-1.2-1.9-2.7-3.6-2.7-.2 0-.3 1.2-.3 2.7zM108.4 196.6c.3.9.6 1.7.6 2 0 .2.7.1 1.5-.2 2.3-.9 1.8-3.4-.6-3.4-1.5 0-1.9.4-1.5 1.6zM126.6 199.7c-.4.9-.2 2.1.4 2.7.7.7 1 .2 1-1.7 0-3.1-.5-3.4-1.4-1zM152.2 199.1c.2.7 1 1.5 1.7 1.7.8.3 1.2-.1.9-.9-.2-.7-1-1.5-1.7-1.7-.8-.3-1.2.1-.9.9zM121.2 201.1c.2.6.7 1 1.2.9.5-.1 1.3.4 1.7 1.2.6.9.9.8.9-.7 0-1.4-.7-2.1-2.1-2.2-1.1-.1-1.9.3-1.7.8zM76 202c0 .5.5 1 1 1 .6 0 1-.5 1-1 0-.6-.4-1-1-1-.5 0-1 .4-1 1zM84.6 203.7c-.6 1.4-.5 1.5.5.6.7-.7 1-1.5.7-1.8-.3-.3-.9.2-1.2 1.2zM104 202.9c1.3 1 1.3 1.3-.2 2.2-2.5 1.4-2.3 2.8.3 2.2 2.3-.6 2.3-4.4-.1-5-1.3-.4-1.3-.3 0 .6zM95 204c0 .5.5 1 1 1 .6 0 1-.5 1-1 0-.6-.4-1-1-1-.5 0-1 .4-1 1zM153.1 205.6c0 1.1.3 1.4.6.6.3-.7.2-1.6-.1-1.9-.3-.4-.6.2-.5 1.3zM122 206.2c0 .6-.7 1.9-1.6 2.9-1.5 1.6-1.4 1.7.5 1.2 1.4-.3 2.1-1.3 2.1-2.9 0-1.3-.2-2.4-.5-2.4s-.5.5-.5 1.2zM127 207.6c0 .2 1.1 1.5 2.4 2.9 1.5 1.6 2.7 2.2 3.1 1.5.3-.5.1-1-.6-1-1 0-1-.3-.1-1.2 1.9-1.9 1.4-2.4-1.8-2.4-1.6 0-3 .1-3 .2zM142 209c0 1.9.3 2.1 1.2 1.2.9-.9.9-1.5 0-2.4-.9-.9-1.2-.7-1.2 1.2zM98.2 210.4c.1 1.3.6 2.2 1 2 1.1-.7 1-3.2-.2-3.9-.6-.3-.9.4-.8 1.9zM139.7 208.7c-.4.3-.7 1.1-.7 1.7 0 .6.5.5 1.2-.2.6-.6.9-1.4.7-1.7-.3-.3-.9-.2-1.2.2zM110.1 210.6c0 1.1.3 1.4.6.6.3-.7.2-1.6-.1-1.9-.3-.4-.6.2-.5 1.3zM143 213.5c0 .8.4 1.5 1 1.5.5 0 .7-.7.4-1.5-.4-.8-.8-1.5-1-1.5-.2 0-.4.7-.4 1.5zM147.6 212.9c-.4.5-.2 1.2.3 1.5.5.4 1.2.2 1.5-.3.4-.5.2-1.2-.3-1.5-.5-.4-1.2-.2-1.5.3zM122 214c0 1.7 1.9 4 3.2 4 .4 0 .8-1.2.8-2.8 0-2.1-.2-2.4-1-1.2-.9 1.3-1.1 1.3-2 0-.9-1.3-1-1.3-1 0zM134 213.8c-1.2.2-1.5 1.2-1.2 3.7.3 2.8.1 3.5-1.3 3.5-1.4 0-1.5.3-.5 1.5.7.8 1.6 1.3 2 1 .5-.3 1.1.3 1.4 1.2.3 1 .4-.1.2-2.4s.1-4.4.6-4.5c1.6-.6.5-4.4-1.2-4zM137.7 213.7c-.6 1 0 6.3.7 7.1.3.3.6-1.3.6-3.6 0-4.1-.4-5-1.3-3.5zM117.4 215.1c-.3.6-.1 1.6.5 2.2.8.8 1.1.5 1.1-1.1 0-2.4-.5-2.8-1.6-1.1zM107 215.9c0 .6.5 1.3 1 1.6.6.3 1-.1 1-.9 0-.9-.4-1.6-1-1.6-.5 0-1 .4-1 .9zM115.1 216.6c0 1.1.3 1.4.6.6.3-.7.2-1.6-.1-1.9-.3-.4-.6.2-.5 1.3zM103 219c0 .5.5 1 1 1 .6 0 1-.5 1-1 0-.6-.4-1-1-1-.5 0-1 .4-1 1zM128.2 220.5c0 1.6.2 2.2.5 1.2.2-.9.2-2.3 0-3-.3-.6-.5.1-.5 1.8zM151 219.5c0 .7.9 1.5 2.1 1.8 1.5.4 1.9.1 1.7-1-.4-1.9-3.8-2.7-3.8-.8zM142.5 221c.3.5.8 1 1.1 1 .2 0 .4-.5.4-1 0-.6-.5-1-1.1-1-.5 0-.7.4-.4 1zM112 223.1c0 .5.5.7 1 .4.6-.3 1-.8 1-1.1 0-.2-.4-.4-1-.4-.5 0-1 .5-1 1.1zM121 223.1c-1.3.7-1.2.9.2.9.9 0 1.9.6 2.1 1.2.3.8.6.7.6-.4.1-2.2-1.1-2.9-2.9-1.7zM136 222.7c0 .5.5 1.5 1 2.3.8 1.2 1 1.1 1-.8 0-1.2-.4-2.2-1-2.2-.5 0-1 .3-1 .7zM150 226.6c0 3.7 1.2 6.4 2.9 6.4 1.2 0 1.3-.2.3-.9-.7-.4-1.4-2-1.6-3.4-.3-3.2-1.6-4.9-1.6-2.1zM11.6 227.8c-.4.8 7.6 7.2 8.9 7.2.3 0 .5-.6.5-1.3 0-1.9-4.7-6-5.9-5.2-.6.3-1.1.1-1.1-.4 0-1.3-1.7-1.5-2.4-.3zM128.3 227.7c-.7.3-1.3 1.2-1.3 2 0 .9.3 1.3.7 1 .3-.4 1.2.1 2 1.1 1.2 1.5 1.3 1.4.7-1.3-.8-3.6-.6-3.3-2.1-2.8zM134.5 228c-.3.5-.1 1 .4 1 .6 0 1.1-.5 1.1-1 0-.6-.2-1-.4-1-.3 0-.8.4-1.1 1zM147 228.6c0 .8.5 1.2 1 .9.6-.3 1-1 1-1.6 0-.5-.4-.9-1-.9-.5 0-1 .7-1 1.6zM95 228.9c0 .5.7 1.1 1.5 1.5.8.3 1.5.1 1.5-.3 0-.5-.7-1.1-1.5-1.5-.8-.3-1.5-.1-1.5.3zM118.5 229.1c-.4.6-.5 1.3-.2 1.6.7.7 2.7-.6 2.7-1.8 0-1.2-1.7-1.2-2.5.2zM140.1 230.7c0 .4.4 1.7.9 2.8.8 1.9.9 1.9.9-.2.1-1.2-.3-2.5-.9-2.8-.5-.3-1-.3-.9.2zM156 231.7c0 .4.5 1.5 1 2.3.8 1.3 1 1.3 1-.2 0-.9-.4-2-1-2.3-.5-.3-1-.3-1 .2zM133.1 233.5c-.1 1.8 1.7 3.8 2.8 3.1 1.6-1 1.3-2.9-.3-2.3-.8.3-1.7.1-2-.6-.2-.7-.5-.8-.5-.2zM145.5 233.9c-.3.5-.1 1.2.5 1.6.5.3 1-.1 1-.9 0-1.8-.6-2.1-1.5-.7zM95 236c0 .5.5 1 1 1 .6 0 1-.5 1-1 0-.6-.4-1-1-1-.5 0-1 .4-1 1zM123 237c0 .5.5 1 1.1 1 .5 0 .7-.5.4-1-.3-.6-.8-1-1.1-1-.2 0-.4.4-.4 1zM148 240.5c0 .8.4 1.5 1 1.5.5 0 .7-.7.4-1.5-.4-.8-.8-1.5-1-1.5-.2 0-.4.7-.4 1.5zM139.1 241.6c0 1.1.3 1.4.6.6.3-.7.2-1.6-.1-1.9-.3-.4-.6.2-.5 1.3zM118.2 243c0 1.4.2 1.9.5 1.2.2-.6.2-1.8 0-2.5-.3-.6-.5-.1-.5 1.3zM127.4 242.6c.3.8.6 1.8.6 2 0 .3.5.2 1-.1 1.5-.9 1.2-2.2-.6-2.9-1.2-.5-1.5-.2-1 1zM131 242.1c0 .5.5.7 1 .4.6-.3 1-.8 1-1.1 0-.2-.4-.4-1-.4-.5 0-1 .5-1 1.1zM110.5 243c.3.5.8 1 1.1 1 .2 0 .4-.5.4-1 0-.6-.5-1-1.1-1-.5 0-.7.4-.4 1zM131.2 246.5c.2 1.1 1 1.9 1.6 1.7.7-.1 1.2.2 1.2.8 0 .5.9 1 2 1s2 .4 2 1c0 .5-.4 1-1 1-.5 0-1 .5-1 1.1 0 .8.4.8 1.5-.1 1.5-1.2 1.5-6.4 0-7.8-.5-.4-.5-.2-.1.5 1.1 2-1.5 2.6-3 .7-.9-1.1-1.2-1.2-.8-.4.7 1.3.6 1.3-1 0-1.7-1.3-1.8-1.3-1.4.5zM148.1 247.6c0 1.1.3 1.4.6.6.3-.7.2-1.6-.1-1.9-.3-.4-.6.2-.5 1.3z"/></svg>